<svg style="color:#000" xmlns="http://www.w3.org/2000/svg" viewBox="0 0 132 46" fill="none"><g clip-path="url(#clip0_2163_2092)"><path d="M67.9962 13.0644V33.0754H70.7733V17.5544L84.5686 33.0854L87.0134 33.0963V13.0833H84.2363V28.6113L70.5492 13.0644H67.9962Z" fill="currentColor"></path><path d="M105.666 12.4277C103.121 12.3694 100.619 13.0804 98.4858 14.4679C97.1305 15.3162 95.9951 16.4731 95.1722 17.8439C94.3492 19.2148 93.8621 20.7609 93.7506 22.3559C93.6391 23.9509 93.9063 25.5497 94.5305 27.0217C95.1547 28.4937 96.1182 29.7972 97.3422 30.8259C99.7778 32.8532 102.89 33.8841 106.054 33.7117C109.219 33.5393 112.201 32.1764 114.402 29.8966C116.077 28.1405 117.045 25.8273 117.12 23.4011C117.194 20.9749 116.37 18.6067 114.805 16.751C113.7 15.3957 112.305 14.3042 110.724 13.5562C109.143 12.8083 107.415 12.4227 105.666 12.4277ZM111.452 28.9723C109.811 30.4108 107.715 31.2251 105.534 31.2723H105.315C103.572 31.2926 101.863 30.7837 100.414 29.8126C98.9658 28.8415 97.8459 27.4539 97.2023 25.8331C96.6003 24.2223 96.5383 22.4595 97.0256 20.8104C97.513 19.1613 98.5232 17.7154 99.9041 16.6906C101.688 15.3694 103.891 14.7388 106.104 14.9155C108.317 15.0922 110.392 16.0641 111.944 17.6516C112.677 18.4156 113.247 19.3202 113.621 20.3108C113.995 21.3014 114.164 22.3574 114.118 23.4152C114.072 24.4729 113.813 25.5104 113.355 26.465C112.897 27.4196 112.25 28.2715 111.454 28.9692L111.452 28.9723Z" fill="currentColor"></path><path d="M55.8484 27.4885L58.5799 33.1032H61.6833V33.0943L51.8186 13.0595H49.0207L39.1382 33.0943H42.0234L44.7549 27.4865L55.8484 27.4885ZM50.1315 16.4436H50.5074L54.6969 25.115H45.8984L50.1315 16.4436Z" fill="currentColor"></path><path d="M20.481 15.5549H29.2002C30.0227 15.5525 30.8419 15.6598 31.6361 15.8743C32.3603 16.0457 33.004 16.4597 33.4605 17.0475C33.9169 17.6353 34.1586 18.3615 34.1454 19.1056C34.1218 19.8551 33.8511 20.5757 33.3754 21.1554C32.8996 21.735 32.2456 22.141 31.5151 22.3102C30.8116 22.492 30.0884 22.5856 29.3618 22.5889H22.9824V25.0565H30.0482C31.6913 25.0774 33.2961 24.559 34.6165 23.5807C35.3783 23.0587 35.993 22.3496 36.4015 21.5214C36.81 20.6932 36.9987 19.7739 36.9493 18.8517C36.916 17.6813 36.5193 16.5502 35.8141 15.6155C35.1088 14.6808 34.1301 13.9889 33.0137 13.6358C31.7815 13.1987 30.4766 13.0034 29.1704 13.0605H17.698V33.0764H20.4751L20.481 15.5549Z" fill="currentColor"></path><path d="M41.8062 40.1263C32.5436 40.3901 22.3665 41.506 14.0838 42.4184C9.99553 42.8677 6.46562 43.2565 3.94044 43.437C3.75702 43.4528 3.57234 43.4301 3.39816 43.3705C3.22397 43.3109 3.06412 43.2157 2.92879 43.0909C2.81224 42.9849 2.71898 42.8558 2.65496 42.7119C2.59093 42.568 2.55753 42.4123 2.55686 42.2547V3.74532C2.55753 3.58779 2.59093 3.43209 2.65496 3.28815C2.71898 3.14422 2.81224 3.01518 2.92879 2.9092C3.06456 2.78505 3.22448 2.69023 3.39855 2.63067C3.57262 2.57111 3.75707 2.5481 3.94044 2.56305C6.3466 2.73563 9.4629 3.06493 13.0721 3.44579C20.7687 4.25908 31.158 5.35304 41.8062 5.63671V3.07779C31.281 2.79413 20.9779 1.70911 13.3409 0.901762C9.70887 0.517928 6.57275 0.186635 4.12295 0.00909886C3.58935 -0.0295986 3.05348 0.0414452 2.54838 0.217827C2.04329 0.394209 1.57969 0.672185 1.18617 1.03464C0.810665 1.37881 0.510916 1.79737 0.306008 2.2637C0.101101 2.73004 -0.00448968 3.23395 -0.00402681 3.74332V42.2528C-0.00448968 42.7622 0.101101 43.266 0.306008 43.7324C0.510916 44.1987 0.810665 44.6173 1.18617 44.9614C1.9094 45.629 2.85803 45.9988 3.84225 45.9969C3.93548 45.9969 4.02873 45.9969 4.12295 45.987C6.70169 45.8025 10.2494 45.4117 14.3635 44.9585C22.5817 44.0539 32.6666 42.948 41.8062 42.6832V40.1263Z" fill="currentColor"></path><path d="M130.393 1.03665C129.999 0.674199 129.536 0.396223 129.031 0.219841C128.526 0.0434594 127.99 -0.0275845 127.456 0.011113C125.006 0.186665 121.87 0.517958 118.238 0.903777C110.581 1.7131 100.244 2.80207 89.6914 3.08574V5.64465C100.368 5.36496 110.791 4.26701 118.507 3.45174C122.116 3.07088 125.232 2.74158 127.639 2.569C127.822 2.55398 128.006 2.577 128.18 2.63656C128.355 2.69612 128.514 2.79095 128.65 2.91515C128.767 3.02113 128.86 3.15023 128.924 3.29416C128.988 3.43809 129.021 3.59374 129.022 3.75127V42.2607C129.021 42.4183 128.988 42.5739 128.924 42.7179C128.86 42.8618 128.767 42.9908 128.65 43.0968C128.515 43.2217 128.355 43.3169 128.181 43.3765C128.007 43.4361 127.822 43.4588 127.639 43.443C125.113 43.2624 121.582 42.8737 117.495 42.4244C109.185 41.5099 98.9758 40.3902 89.6914 40.1303V42.6892C98.8519 42.95 108.973 44.0599 117.214 44.9704C121.329 45.4227 124.881 45.8144 127.455 45.9989C127.549 46.0059 127.642 46.0088 127.736 46.0088C128.72 46.0108 129.669 45.6409 130.392 44.9734C130.767 44.6292 131.067 44.2106 131.272 43.7443C131.477 43.278 131.582 42.7741 131.582 42.2647V3.74534C131.583 3.23604 131.477 2.73217 131.272 2.26584C131.068 1.7995 130.768 1.38091 130.393 1.03665Z" fill="currentColor"></path></g></svg>
